HIERARCHY
ROOT root
{
	OFFSET 0.000000 0.000000 0.000000
	CHANNELS 6 Xposition Yposition Zposition Zrotation Yrotation Xrotation
	JOINT lhip
	{
		OFFSET 0.058581 -0.082280 -0.017664
		CHANNELS 3 Zrotation Yrotation Xrotation
		JOINT lknee
		{
			OFFSET 0.043451 -0.386469 0.008037
			CHANNELS 3 Zrotation Yrotation Xrotation
			JOINT lankle
			{
				OFFSET -0.014790 -0.426874 -0.037428
				CHANNELS 3 Zrotation Yrotation Xrotation
				JOINT ltoe
				{
					OFFSET 0.041054 -0.060286 0.122042
					CHANNELS 3 Zrotation Yrotation Xrotation
					End Site
					{
						OFFSET 0.000000 0.000000 0.000000
					}
				}
			}
		}
	}
	JOINT rhip
	{
		OFFSET -0.060310 -0.090513 -0.013543
		CHANNELS 3 Zrotation Yrotation Xrotation
		JOINT rknee
		{
			OFFSET -0.043257 -0.383688 -0.004843
			CHANNELS 3 Zrotation Yrotation Xrotation
			JOINT rankle
			{
				OFFSET 0.019056 -0.420046 -0.034562
				CHANNELS 3 Zrotation Yrotation Xrotation
				JOINT rtoe
				{
					OFFSET -0.034840 -0.062106 0.130323
					CHANNELS 3 Zrotation Yrotation Xrotation
					End Site
					{
						OFFSET 0.000000 0.000000 0.000000
					}
				}
			}
		}
	}
	JOINT lowerback
	{
		OFFSET 0.004439 0.124404 -0.038385
		CHANNELS 3 Zrotation Yrotation Xrotation
		JOINT upperback
		{
			OFFSET 0.004488 0.137956 0.026820
			CHANNELS 3 Zrotation Yrotation Xrotation
			JOINT chest
			{
				OFFSET -0.002265 0.056032 0.002855
				CHANNELS 3 Zrotation Yrotation Xrotation
				JOINT lowerneck
				{
					OFFSET -0.013390 0.211636 -0.033468
					CHANNELS 3 Zrotation Yrotation Xrotation
					JOINT upperneck
					{
						OFFSET 0.010113 0.088937 0.050410
						CHANNELS 3 Zrotation Yrotation Xrotation
						End Site
						{
							OFFSET 0.000000 0.000000 0.000000
						}
					}
				}
				JOINT lclavicle
				{
					OFFSET 0.071702 0.114000 -0.018898
					CHANNELS 3 Zrotation Yrotation Xrotation
					JOINT lshoulder
					{
						OFFSET 0.122921 0.045205 -0.019046
						CHANNELS 3 Zrotation Yrotation Xrotation
						JOINT lelbow
						{
							OFFSET 0.255332 -0.015649 -0.022946
							CHANNELS 3 Zrotation Yrotation Xrotation
							JOINT lwrist
							{
								OFFSET 0.265709 0.012698 -0.007375
								CHANNELS 3 Zrotation Yrotation Xrotation
								End Site
								{
									OFFSET 0.000000 0.000000 0.000000
								}
							}
						}
					}
				}
				JOINT rclavicle
				{
					OFFSET -0.082954 0.112472 -0.023707
					CHANNELS 3 Zrotation Yrotation Xrotation
					JOINT rshoulder
					{
						OFFSET -0.113228 0.046853 -0.008472
						CHANNELS 3 Zrotation Yrotation Xrotation
						JOINT relbow
						{
							OFFSET -0.260127 -0.014369 -0.031269
							CHANNELS 3 Zrotation Yrotation Xrotation
							JOINT rwrist
							{
								OFFSET -0.269108 0.006794 -0.006027
								CHANNELS 3 Zrotation Yrotation Xrotation
								End Site
								{
									OFFSET 0.000000 0.000000 0.000000
								}
							}
						}
					}
				}
			}
		}
	}
}
MOTION
Frames: 8
Frame Time: 0.033333
0.565968 1.112656 0.751081 5.626663 -3.619468 55.620227 12.065583 0.737617 -27.774958 -7.201682 -14.130408 37.194590 -24.113336 -5.179483 16.233036 0.000000 -0.000000 0.000000 -21.653114 -8.686210 -28.143070 -4.765885 3.044503 44.143369 7.797180 -3.785869 16.267883 0.000000 -0.000000 0.000000 10.299469 -4.891752 53.727790 -10.313810 7.238670 13.944833 -1.482899 3.706561 -9.736810 0.916355 -26.981993 -7.779629 14.352018 0.834553 -10.791968 -42.443770 -28.707821 9.819617 -35.540028 -0.210762 19.867541 61.139205 -81.284908 -31.767380 -4.328549 -12.084158 11.640129 4.264860 54.866846 0.525384 -30.471860 9.448598 -42.541447 -3.483302 11.349071 -47.234605 -3.277933 5.098309 7.950896 
0.566772 1.106192 0.751585 5.171944 -4.353447 58.123000 12.066014 0.663641 -28.929570 -7.993382 -14.409146 36.610359 -22.100045 -5.320167 12.971863 0.000000 -0.000000 0.000000 -22.056640 -7.719165 -30.473655 -4.170056 5.524178 44.884128 10.908816 -1.880659 14.932881 0.000000 -0.000000 0.000000 10.039889 -5.103495 54.012620 -10.603976 7.223488 12.969641 -1.722879 3.519966 -9.436669 1.441251 -26.581601 -8.343453 14.150628 0.484865 -10.941004 -42.085863 -28.503411 9.608282 -35.433099 0.559994 20.243417 69.012109 -81.889128 -39.015831 -2.360554 -12.428863 12.081139 2.225787 54.758047 -1.525221 -31.482252 10.492834 -43.646971 -3.987444 11.651720 -47.864767 -4.456023 5.021855 8.328498 
0.567442 1.100603 0.752482 4.941826 -4.593850 60.661808 11.679455 0.601096 -31.041133 -7.467518 -15.062646 36.368655 -21.395772 -5.051930 11.959656 0.000000 -0.000000 0.000000 -22.604061 -6.837603 -32.441973 -3.376814 7.870372 45.592258 14.693237 -0.048972 13.040752 0.000000 -0.000000 0.000000 9.956139 -5.859217 54.897531 -10.951419 7.104011 10.989744 -1.888916 3.030891 -8.625125 2.029172 -26.347315 -10.025327 13.623199 0.169539 -10.327746 -41.380104 -27.788900 8.875036 -35.703811 1.252529 20.360289 78.682002 -82.169883 -47.726872 -1.368780 -13.862894 12.325262 -0.390971 54.524758 -3.812752 -32.542111 11.953398 -45.192110 -4.436403 11.230832 -48.604506 -6.183481 5.268426 9.859056 
0.566368 1.093985 0.754419 4.245464 -4.847940 63.231009 11.856787 0.278232 -32.964550 -7.336282 -15.707855 36.602028 -21.127832 -4.450811 11.155803 0.000000 -0.000000 0.000000 -22.787101 -5.672221 -33.916966 -2.765472 9.568954 45.272385 16.421490 2.018859 9.577980 0.000000 -0.000000 0.000000 9.532597 -5.647879 55.465672 -11.159368 6.895081 9.851776 -1.868361 3.153658 -8.339992 2.871960 -26.020951 -10.894216 13.440220 0.235827 -10.900532 -40.994983 -27.944118 9.257146 -35.886912 2.329728 21.111495 90.504091 -81.479711 -59.702537 3.946916 -14.214382 10.708647 -1.884193 54.760498 -5.499122 -33.397699 11.791878 -45.085815 -4.707639 12.366015 -48.201305 -7.266339 5.166510 8.698289 
0.564037 1.086620 0.756136 3.049415 -5.149255 66.048005 12.785924 0.571997 -35.018428 -7.153933 -15.163801 37.016567 -21.158423 -4.326178 9.998440 0.000000 -0.000000 0.000000 -22.097778 -5.344626 -35.864986 -3.540729 9.868863 44.352782 17.222910 3.023276 7.446721 0.000000 -0.000000 0.000000 8.892082 -4.464112 56.570309 -11.384594 7.111762 7.904604 -1.590053 2.983286 -8.323889 4.050913 -25.444061 -11.630370 12.963987 0.055791 -11.512600 -40.716613 -27.801702 10.419414 -36.221890 3.066765 21.149538 103.952829 -80.734894 -72.126958 6.455826 -14.656596 10.158332 -3.883110 53.194078 -8.462288 -32.526644 13.593289 -44.865569 -5.843850 13.329074 -48.073609 -7.663980 5.027579 8.424968 
0.561832 1.079825 0.757568 1.348964 -5.565223 68.731887 13.964899 0.710097 -36.880996 -7.012304 -14.391826 37.768961 -20.626511 -3.863070 8.835737 0.000000 -0.000000 0.000000 -21.291291 -4.521932 -38.921049 -3.081539 10.558889 44.721531 17.275084 3.221057 6.360375 0.000000 -0.000000 0.000000 7.743964 -4.136395 57.128277 -11.849353 7.200945 7.130132 -1.600279 2.608571 -8.369868 4.005556 -24.851155 -13.250718 12.763517 0.110694 -11.082170 -39.423691 -26.907781 9.753917 -36.769447 4.158999 20.968465 120.288379 -80.133445 -87.595963 8.351784 -15.275736 9.879739 -6.488324 53.077669 -10.418916 -32.700124 14.890892 -46.061826 -6.703913 13.439042 -47.895865 -7.251931 5.030092 8.291492 
0.560685 1.072292 0.758404 -0.512916 -5.939245 71.153969 15.130806 0.675929 -38.339556 -7.092592 -13.739719 38.627405 -19.292226 -3.586369 7.414246 0.000000 -0.000000 0.000000 -20.722301 -3.563464 -41.612887 -1.782133 11.599835 44.677455 17.318215 3.914605 6.376329 0.000000 -0.000000 0.000000 6.712725 -4.055096 57.474044 -12.375160 7.019230 5.971631 -1.648668 1.752559 -7.776604 3.365364 -23.932917 -14.165000 12.365403 0.385448 -10.945098 -38.195929 -25.846967 9.209685 -37.416651 5.166262 20.398451 131.363924 -78.873633 -97.484832 9.531457 -16.029023 11.001615 -8.715673 53.024225 -11.381923 -33.289939 16.491054 -47.793945 -7.271027 13.792371 -47.913077 -8.461863 4.836279 7.289546 
0.559474 1.063045 0.759131 -2.115260 -5.814782 73.097480 16.571958 0.648817 -39.515534 -6.851881 -12.771130 39.746346 -19.102194 -3.160448 5.999536 0.000000 -0.000000 0.000000 -19.911129 -3.106909 -43.806202 -0.879683 12.060913 45.504557 16.306137 4.446505 4.971313 0.000000 -0.000000 0.000000 5.841343 -4.191079 57.712184 -12.704632 6.521871 5.021794 -1.602327 0.911351 -7.627531 2.764918 -23.238804 -13.867007 11.722114 1.292705 -11.134317 -37.785024 -25.086725 9.734569 -37.965260 6.597889 19.606089 138.754324 -77.013329 -103.061596 10.718409 -15.614222 12.316989 -10.265138 53.058158 -12.554319 -33.598274 18.871674 -48.990890 -7.978095 14.251058 -47.093607 -9.627812 4.470779 7.128380 
